<svg width="20" height="21" viewBox="0 0 20 21" fill="none" xmlns="http://www.w3.org/2000/svg">
<g clip-path="url(#clip0_8_325)">
<path d="M0.723562 18.5528L4.99996 10L9.10553 1.78886C9.47406 1.05181 10.5259 1.05181 10.8944 1.78885L15 10L19.2764 18.5528C19.6088 19.2177 19.1253 20 18.382 20H9.99996H1.61799C0.874608 20 0.391111 19.2177 0.723562 18.5528Z" fill="#34B841"/>
<path d="M4.99996 10L0.723562 18.5528C0.391112 19.2177 0.874608 20 1.61799 20H9.99996M4.99996 10L9.10553 1.78886C9.47406 1.05181 10.5259 1.05181 10.8944 1.78885L15 10M4.99996 10L7.49996 15M9.99996 20H18.382C19.1253 20 19.6088 19.2177 19.2764 18.5528L15 10M9.99996 20L7.49996 15M15 10L7.49996 15" stroke="#34B841"/>
<path d="M18.382 20H10L7.5 15L15 10L19.2764 18.5528C19.6088 19.2177 19.1253 20 18.382 20Z" fill="#1D7926" stroke="#1D7926"/>
<path d="M4.99996 10L0.723562 18.5528C0.391111 19.2177 0.874608 20 1.61799 20H9.99996L7.49996 15L4.99996 10Z" fill="#3EDC4E" stroke="#3EDC4E"/>
</g>
<defs>
<clipPath id="clip0_8_325">
<rect width="20" height="21" fill="white"/>
</clipPath>
</defs>
</svg>
