<?xml version="1.0" standalone="no"?>
<!DOCTYPE svg PUBLIC "-//W3C//DTD SVG 20010904//EN">
<svg version="1.0" xmlns="http://www.w3.org/2000/svg"
 width="672.000000pt" height="672.000000pt" viewBox="0 0 672.000000 672.000000"
 preserveAspectRatio="xMidYMid meet">
<metadata>
Created by potrace 1.14, written by Peter Selinger 2001-2017
</metadata>
<g transform="translate(0.000000,672.000000) scale(0.100000,-0.100000)"
fill="#000000" stroke="none">
<path d="M3305 6482 c-2 -3 -21 -6 -42 -8 -65 -7 -182 -71 -244 -135 -31 -32
-63 -71 -70 -88 -8 -17 -17 -31 -21 -31 -5 0 -7 -3 -6 -7 2 -7 -360 -737 -402
-813 -8 -14 -15 -31 -16 -39 -2 -8 -8 -17 -14 -21 -7 -4 -11 -10 -10 -14 0 -3
-504 -1015 -1121 -2248 -616 -1233 -1128 -2260 -1136 -2282 -101 -286 91 -589
400 -633 68 -9 216 -9 210 1 -4 5 -1 6 6 2 16 -11 122 -13 128 -4 2 5 9 5 15
1 17 -10 138 -9 138 1 0 5 5 5 12 0 7 -5 63 -8 123 -7 61 2 119 3 130 3 11 0
39 -1 63 -2 23 -2 42 1 42 5 0 5 5 5 11 1 15 -9 132 -9 146 -1 6 4 13 4 17 0
9 -10 196 -9 196 0 0 5 5 5 11 2 15 -10 99 -11 99 -2 0 5 5 5 10 2 16 -10 121
-12 127 -3 2 5 9 5 16 1 6 -3 54 -6 106 -5 53 1 105 2 116 2 11 0 39 -1 63 -2
23 -2 42 1 42 5 0 5 5 5 11 1 15 -9 132 -9 146 -1 6 4 13 4 17 0 9 -9 187 -10
193 0 2 4 9 4 15 1 15 -10 98 -10 98 -1 0 5 5 5 10 2 16 -10 121 -12 127 -3 2
5 9 5 15 2 15 -9 259 -11 264 -2 3 4 15 4 27 0 28 -10 138 -9 155 1 6 5 12 5
12 0 0 -4 54 -8 120 -8 66 0 120 4 120 8 0 4 8 4 17 -2 10 -5 26 -5 39 -1 12
5 25 6 28 3 9 -10 136 -9 136 0 0 5 5 5 12 1 17 -11 197 -11 190 0 -3 5 0 6 7
1 18 -11 150 -12 144 -1 -4 5 -1 6 6 2 16 -11 122 -13 128 -4 2 5 9 5 15 1 16
-9 138 -10 138 0 0 5 5 5 12 1 17 -11 197 -11 190 0 -3 5 0 6 7 1 18 -11 150
-12 144 -1 -4 5 -1 6 6 2 16 -11 122 -13 128 -4 2 5 9 5 15 1 16 -9 138 -10
138 0 0 5 5 5 12 1 17 -11 197 -11 190 0 -3 5 0 6 7 1 16 -10 151 -12 144 -3
-2 5 6 4 19 0 28 -9 110 -8 126 2 7 4 12 4 12 -1 0 -4 29 -8 65 -8 36 0 65 4
65 8 0 4 8 4 18 0 32 -15 187 -2 255 21 75 25 129 60 187 117 130 130 174 311
118 489 -6 19 -625 1263 -1376 2764 -1339 2678 -1365 2729 -1423 2787 -63 63
-148 112 -226 130 -50 11 -160 19 -168 11z"/>
</g>
</svg>
